<mxfile host="app.diagrams.net" agent="Mozilla/5.0 (Windows NT 10.0; Win64; x64) AppleWebKit/537.36 (KHTML, like Gecko) Chrome/133.0.0.0 Safari/537.36" version="26.0.16">
  <diagram name="第 1 页" id="1XItAO9T9SJkuMKM4kl1">
    <mxGraphModel dx="1042" dy="522" grid="1" gridSize="10" guides="1" tooltips="1" connect="1" arrows="1" fold="1" page="1" pageScale="1" pageWidth="827" pageHeight="1169" math="0" shadow="0">
      <root>
        <mxCell id="0" />
        <mxCell id="1" parent="0" />
        <mxCell id="DHiy01hexbqqR1WW6OxC-1" value="" style="rounded=0;whiteSpace=wrap;html=1;" vertex="1" parent="1">
          <mxGeometry x="70" y="440" width="650" height="90" as="geometry" />
        </mxCell>
        <mxCell id="DHiy01hexbqqR1WW6OxC-2" value="数据采集" style="rounded=0;whiteSpace=wrap;html=1;" vertex="1" parent="1">
          <mxGeometry x="150" y="455" width="120" height="60" as="geometry" />
        </mxCell>
        <mxCell id="DHiy01hexbqqR1WW6OxC-3" value="数据存储" style="rounded=0;whiteSpace=wrap;html=1;" vertex="1" parent="1">
          <mxGeometry x="310" y="455" width="120" height="60" as="geometry" />
        </mxCell>
        <mxCell id="DHiy01hexbqqR1WW6OxC-4" value="数据处理" style="rounded=0;whiteSpace=wrap;html=1;" vertex="1" parent="1">
          <mxGeometry x="480" y="455" width="120" height="60" as="geometry" />
        </mxCell>
        <mxCell id="DHiy01hexbqqR1WW6OxC-6" value="数据层" style="text;html=1;align=center;verticalAlign=middle;whiteSpace=wrap;rounded=0;" vertex="1" parent="1">
          <mxGeometry x="80" y="470" width="60" height="30" as="geometry" />
        </mxCell>
        <mxCell id="DHiy01hexbqqR1WW6OxC-7" value="" style="rounded=0;whiteSpace=wrap;html=1;" vertex="1" parent="1">
          <mxGeometry x="70" y="350" width="650" height="80" as="geometry" />
        </mxCell>
        <mxCell id="DHiy01hexbqqR1WW6OxC-8" value="网络请求处理" style="rounded=0;whiteSpace=wrap;html=1;" vertex="1" parent="1">
          <mxGeometry x="150" y="360" width="120" height="60" as="geometry" />
        </mxCell>
        <mxCell id="DHiy01hexbqqR1WW6OxC-9" value="RAG模块" style="rounded=0;whiteSpace=wrap;html=1;" vertex="1" parent="1">
          <mxGeometry x="310" y="360" width="120" height="60" as="geometry" />
        </mxCell>
        <mxCell id="DHiy01hexbqqR1WW6OxC-10" value="知识图谱" style="rounded=0;whiteSpace=wrap;html=1;" vertex="1" parent="1">
          <mxGeometry x="480" y="360" width="120" height="60" as="geometry" />
        </mxCell>
        <mxCell id="DHiy01hexbqqR1WW6OxC-11" value="信息检索" style="rounded=0;whiteSpace=wrap;html=1;" vertex="1" parent="1">
          <mxGeometry x="740" y="250" width="100" height="280" as="geometry" />
        </mxCell>
        <mxCell id="DHiy01hexbqqR1WW6OxC-12" value="" style="rounded=0;whiteSpace=wrap;html=1;" vertex="1" parent="1">
          <mxGeometry x="70" y="250" width="650" height="80" as="geometry" />
        </mxCell>
        <mxCell id="DHiy01hexbqqR1WW6OxC-13" value="数据可视化" style="rounded=0;whiteSpace=wrap;html=1;" vertex="1" parent="1">
          <mxGeometry x="150" y="260" width="120" height="60" as="geometry" />
        </mxCell>
        <mxCell id="DHiy01hexbqqR1WW6OxC-14" value="数据查询" style="rounded=0;whiteSpace=wrap;html=1;" vertex="1" parent="1">
          <mxGeometry x="310" y="260" width="120" height="60" as="geometry" />
        </mxCell>
        <mxCell id="DHiy01hexbqqR1WW6OxC-15" value="应用层" style="text;html=1;align=center;verticalAlign=middle;whiteSpace=wrap;rounded=0;" vertex="1" parent="1">
          <mxGeometry x="80" y="275" width="60" height="30" as="geometry" />
        </mxCell>
        <mxCell id="DHiy01hexbqqR1WW6OxC-16" value="服务层" style="text;html=1;align=center;verticalAlign=middle;whiteSpace=wrap;rounded=0;" vertex="1" parent="1">
          <mxGeometry x="80" y="375" width="60" height="30" as="geometry" />
        </mxCell>
        <mxCell id="DHiy01hexbqqR1WW6OxC-17" value="用户界面" style="rounded=0;whiteSpace=wrap;html=1;" vertex="1" parent="1">
          <mxGeometry x="480" y="260" width="120" height="60" as="geometry" />
        </mxCell>
      </root>
    </mxGraphModel>
  </diagram>
</mxfile>
